<?xml version="1.0" encoding="UTF-8" standalone="no"?>
<!-- Generator: Adobe Illustrator 14.0.0, SVG Export Plug-In . SVG Version: 6.00 Build 43363)  -->

<svg
   xmlns:dc="http://purl.org/dc/elements/1.1/"
   xmlns:cc="http://creativecommons.org/ns#"
   xmlns:rdf="http://www.w3.org/1999/02/22-rdf-syntax-ns#"
   xmlns:svg="http://www.w3.org/2000/svg"
   xmlns="http://www.w3.org/2000/svg"
   xmlns:sodipodi="http://sodipodi.sourceforge.net/DTD/sodipodi-0.dtd"
   xmlns:inkscape="http://www.inkscape.org/namespaces/inkscape"
   version="1.1"
   id="icon-m-telephony-pause-layer"
   x="0px"
   y="0px"
   width="48px"
   height="48px"
   viewBox="0 0 48 48"
   style="enable-background:new 0 0 48 48;"
   xml:space="preserve"
   inkscape:version="0.48.3.1 r9886"
   sodipodi:docname="icon-m-telephony-pause.svg"><metadata
   id="metadata18"><rdf:RDF><cc:Work
       rdf:about=""><dc:format>image/svg+xml</dc:format><dc:type
         rdf:resource="http://purl.org/dc/dcmitype/StillImage" /></cc:Work></rdf:RDF></metadata><defs
   id="defs16">
	
	
	

		
	</defs><sodipodi:namedview
   pagecolor="#ffffff"
   bordercolor="#666666"
   borderopacity="1"
   objecttolerance="10"
   gridtolerance="10"
   guidetolerance="10"
   inkscape:pageopacity="0"
   inkscape:pageshadow="2"
   inkscape:window-width="1920"
   inkscape:window-height="1056"
   id="namedview14"
   showgrid="false"
   inkscape:zoom="4.9166667"
   inkscape:cx="-11.79661"
   inkscape:cy="24"
   inkscape:window-x="0"
   inkscape:window-y="24"
   inkscape:window-maximized="1"
   inkscape:current-layer="icon-m-telephony-pause-layer" />
<rect
   y="0"
   x="0"
   id="rect4"
   height="48"
   width="48"
   style="fill:none" /><g
   id="g3779"
   style="fill:#ffffff;fill-opacity:1"
   transform="matrix(0.80489525,0,0,0.82945736,3.968258,3.379582)"><g
     transform="matrix(0.6050154,0,0,0.54661017,9.9883025,14.847457)"
     id="g6"
     style="fill:#ffffff;fill-opacity:1">
		<path
   style="fill:#ffffff;fill-opacity:1"
   d="m 17.525,46 c 0,1.1 -0.901,2 -2,2 H 3.601 c -1.101,0 -2,-0.9 -2,-2 V 2 c 0,-1.1 0.899,-2 2,-2 h 11.926 c 1.099,0 2,0.9 2,2 l -0.002,44 0,0 z"
   id="path8"
   inkscape:connector-curvature="0" />
	</g><path
     inkscape:connector-curvature="0"
     id="path12"
     d="m 38.061017,39.991525 c 0,0.601271 -0.544514,1.09322 -1.210031,1.09322 h -7.214203 c -0.666122,0 -1.210031,-0.491949 -1.210031,-1.09322 V 15.940677 c 0,-0.601271 0.543909,-1.09322 1.210031,-1.09322 h 7.214203 c 0.665517,0 1.210031,0.491949 1.210031,1.09322 v 24.050848 z"
     style="fill:#ffffff;fill-opacity:1" /></g>
</svg>