<?xml version="1.0" encoding="UTF-8" standalone="no"?>
<!-- Generator: Adobe Illustrator 14.0.0, SVG Export Plug-In . SVG Version: 6.00 Build 43363)  -->

<svg
   xmlns:dc="http://purl.org/dc/elements/1.1/"
   xmlns:cc="http://creativecommons.org/ns#"
   xmlns:rdf="http://www.w3.org/1999/02/22-rdf-syntax-ns#"
   xmlns:svg="http://www.w3.org/2000/svg"
   xmlns="http://www.w3.org/2000/svg"
   xmlns:sodipodi="http://sodipodi.sourceforge.net/DTD/sodipodi-0.dtd"
   xmlns:inkscape="http://www.inkscape.org/namespaces/inkscape"
   version="1.1"
   id="icon-addressbook-layer"
   x="0px"
   y="0px"
   width="32px"
   height="32px"
   viewBox="0 0 32 32"
   style="enable-background:new 0 0 32 32;"
   xml:space="preserve"
   inkscape:version="0.48.1 r9760"
   sodipodi:docname="icon-addressbook.svg"><metadata
   id="metadata3100"><rdf:RDF><cc:Work
       rdf:about=""><dc:format>image/svg+xml</dc:format><dc:type
         rdf:resource="http://purl.org/dc/dcmitype/StillImage" /></cc:Work></rdf:RDF></metadata><defs
   id="defs3098" /><sodipodi:namedview
   pagecolor="#ffffff"
   bordercolor="#666666"
   borderopacity="1"
   objecttolerance="10"
   gridtolerance="10"
   guidetolerance="10"
   inkscape:pageopacity="0"
   inkscape:pageshadow="2"
   inkscape:window-width="684"
   inkscape:window-height="795"
   id="namedview3096"
   showgrid="false"
   inkscape:zoom="8.9375"
   inkscape:cx="16"
   inkscape:cy="17.398601"
   inkscape:window-x="690"
   inkscape:window-y="78"
   inkscape:window-maximized="0"
   inkscape:current-layer="icon-addressbook-layer" />
<g
   id="icon-addressbook"
   label="#g4262"
   style="fill:#d2691e">
	<rect
   id="rect4116"
   style="fill:#d2691e;fill-opacity:0"
   width="32"
   height="32" />
	<path
   style="opacity:0.14999999999999999;fill:#d2691e;enable-background:new"
   d="M6.721,3.7c-1.396,0.116-3.055,4.769-1.625,7.625   c0.25,0.5-3.5,3.875-3.5,6.5c0,0,0.75,4.521,9.875,3c0.75-0.125-1.375,4.5,0.5,5.5s17.25,3.875,17.375-0.875s-1.375-8.75-4.5-9   S31.334,5.089,20.221,4.2c-3.125-0.25-5,3.75-4.75,11.375c0.063,1.424-1.625-3.875-3.75-3.75S15.846,2.95,6.721,3.7z"
   id="path3092" />
	<path
   id="path4375_1_"
   style="opacity:0.59999999999999998;enable-background:new;fill:#d2691e"
   d="M28.916,17.887c-0.824-0.885-1.818-1.521-2.871-1.868   c0.479-1.409,0.709-3.166,0.709-5.313c0-3.695-2.812-6.703-6.271-6.705c-3.455,0-6.271,3.008-6.271,6.707   c0,1.022,0.063,1.984,0.213,2.875c-0.562-0.545-1.209-0.953-1.896-1.181c0.354-1.024,0.52-2.301,0.52-3.858   c0-2.684-2.049-4.867-4.562-4.869c-2.508,0-4.553,2.188-4.563,4.871c0,1.494,0.209,2.812,0.611,3.885   c-1.979,0.688-3.492,2.771-3.49,5.062v2.271L1.076,20c0.125,0.465,1.063,2.788,7.479,2.788c0.604,0,1.188-0.021,1.688-0.062   c0,0.104-0.02,0.196-0.02,0.305v3.131l0.045,0.322c0.172,0.643,1.479,3.844,10.312,3.844s10.146-3.201,10.314-3.844l0.043-3.453   C30.956,21.123,30.228,19.295,28.916,17.887L28.916,17.887z M19,17.954l-1.062-1.646c-0.813-1.264-1.229-3.195-1.229-5.6   c0-2.313,1.688-4.199,3.771-4.199c2.062,0.001,3.77,1.887,3.771,4.197c0,2.545-0.354,4.438-1.07,5.621l-1.041,1.731   c-0.438,0.186-0.965,0.271-1.521,0.271C20.012,18.331,19.475,18.202,19,17.954z M7.428,13.851l-0.795-1.24   c-0.588-0.918-0.896-2.323-0.896-4.063c0-1.682,1.229-3.051,2.729-3.051c1.521,0,2.734,1.369,2.736,3.049   c0,1.848-0.271,3.221-0.783,4.08L9.702,13.82c-0.514,0.271-0.994,0.272-1.271,0.272C8.065,14.092,7.735,13.998,7.428,13.851z    M10.571,20.868c-0.582,0.061-1.234,0.098-2.021,0.098c-4.438,0-5.52-1.159-5.688-1.396v-2.078c0-1.964,1.596-3.456,3.021-3.479   h0.078c0.646,0.698,1.479,1.09,2.479,1.09c1.1,0,1.938-0.381,2.604-1.095h0.188c0.729,0,1.479,0.363,2.062,0.998   c0.396,0.433,0.67,0.938,0.83,1.479c-1.646,0.892-2.938,2.498-3.524,4.386L10.571,20.868L10.571,20.868z M28.444,25.854   c-0.314,0.43-1.873,1.957-7.854,1.957c-6.104,0-7.604-1.603-7.854-1.931v-2.858c0-2.705,2.188-4.763,4.164-4.785l0.723-0.016   c0.813,0.727,1.811,1.11,2.973,1.11c1.271,0,2.313-0.375,3.146-1.107h0.521c0.979,0,2.021,0.501,2.837,1.374   c0.896,0.942,1.354,2.157,1.354,3.424L28.444,25.854L28.444,25.854z" />
	<path
   id="path4375"
   style="fill:#d2691e"
   d="M28.916,16.887c-0.824-0.885-1.818-1.521-2.871-1.868   c0.479-1.409,0.709-3.166,0.709-5.313c0-3.695-2.812-6.703-6.271-6.705c-3.455,0-6.271,3.008-6.271,6.707   c0,1.022,0.063,1.984,0.213,2.875c-0.562-0.545-1.209-0.953-1.896-1.181c0.354-1.024,0.52-2.301,0.52-3.858   c0-2.684-2.049-4.867-4.562-4.869c-2.508,0-4.553,2.188-4.563,4.871c0,1.494,0.209,2.812,0.611,3.885   c-1.979,0.688-3.492,2.771-3.49,5.063v2.271L1.076,19c0.125,0.465,1.063,2.788,7.479,2.788c0.604,0,1.188-0.021,1.688-0.062   c0,0.104-0.02,0.196-0.02,0.305v3.131l0.045,0.322c0.172,0.643,1.479,3.844,10.312,3.844s10.146-3.201,10.314-3.844l0.043-3.453   C30.956,20.123,30.228,18.295,28.916,16.887L28.916,16.887z M19,16.954l-1.062-1.646c-0.813-1.264-1.229-3.195-1.229-5.6   c0-2.313,1.688-4.199,3.771-4.199c2.062,0.001,3.77,1.887,3.771,4.197c0,2.545-0.354,4.438-1.07,5.621l-1.041,1.731   c-0.438,0.186-0.965,0.271-1.521,0.271C20.012,17.331,19.475,17.202,19,16.954z M7.428,12.851l-0.795-1.24   c-0.588-0.918-0.896-2.323-0.896-4.063c0-1.682,1.229-3.051,2.729-3.051c1.521,0,2.734,1.369,2.736,3.049   c0,1.848-0.271,3.221-0.783,4.08L9.702,12.82c-0.514,0.271-0.994,0.272-1.271,0.272C8.065,13.092,7.735,12.998,7.428,12.851z    M10.571,19.868c-0.582,0.061-1.234,0.098-2.021,0.098c-4.438,0-5.52-1.159-5.688-1.396v-2.079c0-1.964,1.596-3.455,3.021-3.479   h0.078c0.646,0.698,1.479,1.09,2.479,1.09c1.1,0,1.938-0.381,2.604-1.095h0.188c0.729,0,1.479,0.363,2.062,0.998   c0.396,0.433,0.67,0.938,0.83,1.479c-1.646,0.892-2.938,2.498-3.524,4.386L10.571,19.868L10.571,19.868z M28.444,24.854   c-0.314,0.43-1.873,1.957-7.854,1.957c-6.104,0-7.604-1.603-7.854-1.931v-2.858c0-2.705,2.188-4.763,4.164-4.785l0.723-0.016   c0.813,0.727,1.811,1.11,2.973,1.11c1.271,0,2.313-0.375,3.146-1.107h0.521c0.979,0,2.021,0.501,2.837,1.374   c0.896,0.942,1.354,2.157,1.354,3.424L28.444,24.854L28.444,24.854z" />
</g>
</svg>