<?xml version="1.0" encoding="UTF-8" standalone="no"?>
<!-- Generator: Adobe Illustrator 14.0.0, SVG Export Plug-In . SVG Version: 6.00 Build 43363)  -->

<svg
   xmlns:dc="http://purl.org/dc/elements/1.1/"
   xmlns:cc="http://creativecommons.org/ns#"
   xmlns:rdf="http://www.w3.org/1999/02/22-rdf-syntax-ns#"
   xmlns:svg="http://www.w3.org/2000/svg"
   xmlns="http://www.w3.org/2000/svg"
   xmlns:sodipodi="http://sodipodi.sourceforge.net/DTD/sodipodi-0.dtd"
   xmlns:inkscape="http://www.inkscape.org/namespaces/inkscape"
   version="1.1"
   id="icon-m-telephony-volume-layer"
   x="0px"
   y="0px"
   width="48px"
   height="48px"
   viewBox="0 0 48 48"
   style="enable-background:new 0 0 48 48;"
   xml:space="preserve"
   inkscape:version="0.48.3.1 r9886"
   sodipodi:docname="icon-m-telephony-volume.svg"><metadata
   id="metadata16"><rdf:RDF><cc:Work
       rdf:about=""><dc:format>image/svg+xml</dc:format><dc:type
         rdf:resource="http://purl.org/dc/dcmitype/StillImage" /></cc:Work></rdf:RDF></metadata><defs
   id="defs14">
	
	
	
	
</defs><sodipodi:namedview
   pagecolor="#ffffff"
   bordercolor="#666666"
   borderopacity="1"
   objecttolerance="10"
   gridtolerance="10"
   guidetolerance="10"
   inkscape:pageopacity="0"
   inkscape:pageshadow="2"
   inkscape:window-width="1920"
   inkscape:window-height="1056"
   id="namedview12"
   showgrid="false"
   inkscape:zoom="10.334071"
   inkscape:cx="24.553962"
   inkscape:cy="12.354665"
   inkscape:window-x="0"
   inkscape:window-y="24"
   inkscape:window-maximized="1"
   inkscape:current-layer="icon-m-telephony-volume-layer" />
<rect
   style="opacity:0.69999999999999996;fill:#000000;fill-opacity:0;stroke:none"
   id="rect3778"
   width="48"
   height="48"
   x="0"
   y="0" /><g
   id="g3773"
   transform="matrix(0.72033898,0,0,0.79571987,6.644997,6.4416518)"><path
     sodipodi:nodetypes="ssccccccssccs"
     style="fill:#ffffff;fill-opacity:1"
     d="m 24.008271,7.2213051 -0.645,0 c -0.15,0 -0.369,0.081 -0.487,0.178 l -9.162,9.2429999 -9.1379998,0 0,14.418 9.0249998,0 9.302,9.338 c 0.119,0.102 0.337,0.177 0.487,0.177 l 0.643,0 c 0.146,0 0.268,-0.141 0.268,-0.313 l -0.028,-32.7249999 c 0,-0.173 -0.123,-0.316 -0.265,-0.316 z"
     id="path6"
     inkscape:connector-curvature="0" /><path
     style="fill:#808080;fill-opacity:1"
     d="m 37.957271,7.7713051 c -0.534,-0.404 -1.295,-0.289 -1.708,0.255 -0.401,0.542 -0.283,1.321 0.263,1.729 3.469,2.6269999 5.635,7.8119999 5.635,13.5349999 0,5.71 -2.166,10.909 -5.635,13.532 -0.546,0.405 -0.664,1.173 -0.263,1.722 0.413,0.545 1.174,0.658 1.708,0.256 4.08,-3.093 6.619,-9.033 6.619,-15.509 0,-6.489 -2.539,-12.426 -6.619,-15.5199999 z"
     id="path8"
     inkscape:connector-curvature="0" /><path
     style="fill:#808080;fill-opacity:1"
     d="m 34.457271,16.640305 c 0,0 -0.029,-0.088 -0.051,-0.131 -0.256,-0.605 -0.867,-1.709 -0.867,-1.709 -0.654,-1.137 -1.321,-2.008 -2.319,-2.945 -0.354,-0.342 -0.75,-0.638 -1.13,-0.932 -0.084,-0.062 -0.175,-0.107 -0.27,-0.144 -0.523,-0.284 -1.189,-0.143 -1.566,0.366 -0.328,0.449 -0.312,1.054 -0.004,1.496 0.084,0.15 0.25,0.311 0.343,0.396 0.572,0.528 1.187,1.041 1.711,1.673 0.195,0.239 0.383,0.485 0.566,0.745 1.362,2.104 2.182,4.917 2.182,7.93 0,2.979 -0.775,5.768 -2.115,7.872 -0.688,0.948 -1.47,1.72 -2.32,2.438 -0.531,0.454 -0.674,1.228 -0.266,1.787 0.417,0.564 1.181,0.709 1.764,0.328 0.402,-0.264 0.776,-0.525 1.13,-0.868 1.108,-0.933 1.983,-2.312 2.726,-3.723 h -0.019 c 1.151,-2.249 1.803,-4.973 1.803,-7.835 -10e-4,-2.412 -0.465,-4.728 -1.298,-6.744 z"
     id="path10"
     inkscape:connector-curvature="0" /></g>
</svg>