<?xml version="1.0" encoding="UTF-8" standalone="no"?>
<!-- Generator: Adobe Illustrator 14.0.0, SVG Export Plug-In . SVG Version: 6.00 Build 43363)  -->

<svg
   xmlns:dc="http://purl.org/dc/elements/1.1/"
   xmlns:cc="http://creativecommons.org/ns#"
   xmlns:rdf="http://www.w3.org/1999/02/22-rdf-syntax-ns#"
   xmlns:svg="http://www.w3.org/2000/svg"
   xmlns="http://www.w3.org/2000/svg"
   xmlns:sodipodi="http://sodipodi.sourceforge.net/DTD/sodipodi-0.dtd"
   xmlns:inkscape="http://www.inkscape.org/namespaces/inkscape"
   version="1.1"
   id="icon-m-telephony-volume-layer"
   x="0px"
   y="0px"
   width="48px"
   height="48px"
   viewBox="0 0 48 48"
   style="enable-background:new 0 0 48 48;"
   xml:space="preserve"
   inkscape:version="0.48.3.1 r9886"
   sodipodi:docname="icon-m-telephony-volume-off.svg"><metadata
   id="metadata16"><rdf:RDF><cc:Work
       rdf:about=""><dc:format>image/svg+xml</dc:format><dc:type
         rdf:resource="http://purl.org/dc/dcmitype/StillImage" /><dc:title></dc:title></cc:Work></rdf:RDF></metadata><defs
   id="defs14">
	
	
	
	
</defs><sodipodi:namedview
   pagecolor="#ffffff"
   bordercolor="#666666"
   borderopacity="1"
   objecttolerance="10"
   gridtolerance="10"
   guidetolerance="10"
   inkscape:pageopacity="0"
   inkscape:pageshadow="2"
   inkscape:window-width="1920"
   inkscape:window-height="1056"
   id="namedview12"
   showgrid="false"
   inkscape:zoom="10.334071"
   inkscape:cx="24.457195"
   inkscape:cy="12.354665"
   inkscape:window-x="0"
   inkscape:window-y="24"
   inkscape:window-maximized="1"
   inkscape:current-layer="icon-m-telephony-volume-layer" />
<rect
   style="fill:#000000;fill-opacity:0;stroke:none"
   id="rect3778"
   width="48"
   height="48"
   x="0"
   y="0" />
<path
   inkscape:connector-curvature="0"
   id="path6"
   d="m 29.164523,12.865158 -0.464618,0 c -0.108051,0 -0.265805,0.06445 -0.350805,0.141638 l -6.599746,7.354839 -6.582457,0 0,11.472689 6.501059,0 6.700593,7.430432 c 0.08572,0.08116 0.242754,0.140842 0.350805,0.140842 l 0.463178,0 c 0.105169,0 0.193051,-0.112196 0.193051,-0.24906 l -0.02017,-26.039933 c 0,-0.137659 -0.0886,-0.251447 -0.19089,-0.251447 z"
   style="fill:#ffffff;fill-opacity:1"
   sodipodi:nodetypes="ssccccccssccs" /><path
   style="fill:#800000;fill-opacity:1;stroke:none"
   d="m 12.985056,12.423578 c 8.820686,9.465431 15.22219,17.672888 24.042876,27.138319 -0.446347,0.478974 -1.666835,1.345017 -2.113183,1.82399 -8.820686,-9.465432 -15.222189,-17.672888 -24.042875,-27.13832 0.446348,-0.478973 1.666833,-1.345016 2.113182,-1.823989 z"
   id="rect3780"
   inkscape:connector-curvature="0"
   sodipodi:nodetypes="ccccc" /></svg>