<?xml version="1.0" encoding="iso-8859-1"?>
<!-- Generator: Adobe Illustrator 14.0.0, SVG Export Plug-In . SVG Version: 6.00 Build 43363)  -->
<!DOCTYPE svg PUBLIC "-//W3C//DTD SVG 1.1//EN" "http://www.w3.org/Graphics/SVG/1.1/DTD/svg11.dtd">
<svg version="1.1" id="icon-m-telephony-call-missed-layer"
	 xmlns="http://www.w3.org/2000/svg" xmlns:xlink="http://www.w3.org/1999/xlink" x="0px" y="0px" width="25px" height="25px"
	 viewBox="0 0 25 25" style="enable-background:new 0 0 25 25;" xml:space="preserve">
<g id="icon-m-telephony-call-missed" transform="translate(201.49899,231.64826)">
	<rect x="-201.499" y="-231.648" style="fill:none;" width="25" height="25"/>
	<g>
		<path id="path11393" style="fill:none;stroke:#EC2727;stroke-width:2;stroke-linecap:round;stroke-linejoin:round;" d="
			M-196.716-229.653v6.081"/>
		<path id="path11395" style="fill:none;stroke:#EC2727;stroke-width:2;stroke-linecap:round;stroke-linejoin:round;" d="
			M-190.749-229.642h-5.965"/>
		<path id="path11400" style="fill:none;stroke:#EC2727;stroke-width:2;stroke-linecap:round;stroke-linejoin:round;" d="
			M-196.745-229.621l8.021,7.983"/>
		<path id="path11402" style="fill:none;stroke:#EC2727;stroke-width:2;stroke-linecap:round;stroke-linejoin:round;" d="
			M-180.726-229.621l-8.021,7.983"/>
		<path style="fill:none;stroke:#EC2727;stroke-width:1.9386;stroke-linecap:round;stroke-linejoin:round;" d="M-189.11-217.584
			c6.361-0.045,11.329,2.121,11.329,5.514c0,1.438,0,2.979,0,2.979h-6.542c0,0,0-2.438,0-2.979c0-1.393,0.313-2.061-4.771-2.061
			c-5.104,0-4.854,0.848-4.854,2.061c0,0.666,0,2.979,0,2.979h-6.231c0,0,0-1.646,0-2.979
			C-200.195-214.555-197.59-217.523-189.11-217.584z"/>
	</g>
</g>
</svg>
