<?xml version="1.0" encoding="iso-8859-1"?>
<!-- Generator: Adobe Illustrator 14.0.0, SVG Export Plug-In . SVG Version: 6.00 Build 43363)  -->
<!DOCTYPE svg PUBLIC "-//W3C//DTD SVG 1.1//EN" "http://www.w3.org/Graphics/SVG/1.1/DTD/svg11.dtd">
<svg version="1.1" id="icon-m-telephony-call-initiated-layer"
	 xmlns="http://www.w3.org/2000/svg" xmlns:xlink="http://www.w3.org/1999/xlink" x="0px" y="0px" width="25px" height="25px"
	 viewBox="0 0 25 25" style="enable-background:new 0 0 25 25;" xml:space="preserve">
<g id="icon-m-telephony-call-initiated" transform="translate(117.10881,227.23085)">
	<g>
		<path id="path11404" style="fill:none;stroke:#A2CD3A;stroke-width:2;stroke-linecap:round;stroke-linejoin:round;" d="
			M-94.624-224.642v6.081"/>
		<path id="path11406" style="fill:none;stroke:#A2CD3A;stroke-width:2;stroke-linecap:round;stroke-linejoin:round;" d="
			M-100.592-224.635h5.979"/>
		<path id="path11408" style="fill:none;stroke:#A2CD3A;stroke-width:2;stroke-linecap:round;stroke-linejoin:round;" d="
			M-94.597-224.613l-8.02,7.979"/>
		<path style="fill:none;stroke:#A2CD3A;stroke-width:2;stroke-linecap:round;stroke-linejoin:round;" d="M-108.691-210.578
			c-4.674-4.607-6.717-9.813-4.242-12.286c1.039-1.039,2.166-2.166,2.166-2.166l4.773,4.771c0,0-1.771,1.771-2.166,2.166
			c-1.021,1.021-1.729,1.282,1.988,4.994c3.713,3.712,4.146,2.917,5.021,2.033c0.485-0.486,2.166-2.166,2.166-2.166l4.563,4.552
			c0,0-1.193,1.193-2.166,2.166C-98.392-204.701-102.458-204.434-108.691-210.578z"/>
	</g>
	<rect x="-117.109" y="-227.231" style="fill:none;" width="25" height="25"/>
</g>
</svg>
