<?xml version="1.0" encoding="UTF-8" standalone="no"?>
<!-- Created with Inkscape (http://www.inkscape.org/) -->

<svg
   xmlns:dc="http://purl.org/dc/elements/1.1/"
   xmlns:cc="http://creativecommons.org/ns#"
   xmlns:rdf="http://www.w3.org/1999/02/22-rdf-syntax-ns#"
   xmlns:svg="http://www.w3.org/2000/svg"
   xmlns="http://www.w3.org/2000/svg"
   xmlns:sodipodi="http://sodipodi.sourceforge.net/DTD/sodipodi-0.dtd"
   xmlns:inkscape="http://www.inkscape.org/namespaces/inkscape"
   width="51"
   height="51"
   id="svg3430"
   version="1.1"
   inkscape:version="0.48.3.1 r9886"
   sodipodi:docname="meegotouch-button-negative-background.svg">
  <defs
     id="defs3432" />
  <sodipodi:namedview
     id="base"
     pagecolor="#ffffff"
     bordercolor="#666666"
     borderopacity="1.0"
     inkscape:pageopacity="0.0"
     inkscape:pageshadow="2"
     inkscape:zoom="0.35"
     inkscape:cx="-57.285715"
     inkscape:cy="-146.57142"
     inkscape:document-units="px"
     inkscape:current-layer="layer1"
     showgrid="false"
     fit-margin-top="0"
     fit-margin-left="0"
     fit-margin-right="0"
     fit-margin-bottom="0"
     inkscape:window-width="472"
     inkscape:window-height="383"
     inkscape:window-x="275"
     inkscape:window-y="200"
     inkscape:window-maximized="0" />
  <metadata
     id="metadata3435">
    <rdf:RDF>
      <cc:Work
         rdf:about="">
        <dc:format>image/svg+xml</dc:format>
        <dc:type
           rdf:resource="http://purl.org/dc/dcmitype/StillImage" />
        <dc:title></dc:title>
      </cc:Work>
    </rdf:RDF>
  </metadata>
  <g
     inkscape:label="Layer 1"
     inkscape:groupmode="layer"
     id="layer1"
     transform="translate(-432.28571,-334.79076)">
    <g
       transform="translate(27.285713,-191.20924)"
       id="meegotouch-button-negative-background-pressed">
      <g
         id="g407">
        <path
           inkscape:connector-curvature="0"
           style="fill:#c80000"
           d="m 415,576.5 c -5.238,0 -9.5,-4.262 -9.5,-9.5 v -31 c 0,-5.238 4.262,-9.5 9.5,-9.5 h 31 c 5.238,0 9.5,4.262 9.5,9.5 v 31 c 0,5.238 -4.262,9.5 -9.5,9.5 h -31 z"
           id="path409" />
        <path
           inkscape:connector-curvature="0"
           style="fill:#666666"
           d="m 446,527 c 4.962,0 9,4.037 9,9 v 31 c 0,4.963 -4.038,9 -9,9 h -31 c -4.962,0 -9,-4.037 -9,-9 v -31 c 0,-4.963 4.038,-9 9,-9 h 31 m 0,-1 h -31 c -5.5,0 -10,4.5 -10,10 v 31 c 0,5.5 4.5,10 10,10 h 31 c 5.5,0 10,-4.5 10,-10 v -31 c 0,-5.5 -4.5,-10 -10,-10 l 0,0 z"
           id="path411" />
      </g>
      <g
         style="opacity:0.5"
         id="g413">
        <path
           inkscape:connector-curvature="0"
           d="m 456,567 c 0,5.5 -4.5,10 -10,10 h -31 c -5.5,0 -10,-4.5 -10,-10 v -31 c 0,-5.5 4.5,-10 10,-10 h 31 c 5.5,0 10,4.5 10,10 v 31 z"
           id="path415" />
      </g>
    </g>
  </g>
</svg>
